<svg xmlns="http://www.w3.org/2000/svg" viewBox="0 0 77.5 38.38"><defs><style>.cls-1{fill:#fff;}</style></defs><title>Datový zdroj 8</title><g id="Vrstva_2" data-name="Vrstva 2"><g id="Vrstva_1-2" data-name="Vrstva 1"><g id="Dibujo"><path d="M66.5,12a10.47,10.47,0,0,0-1.69.18,17,17,0,0,0-32.62,0A10.47,10.47,0,0,0,30.5,12a11,11,0,0,0,0,22h36a11,11,0,0,0,0-22Zm0,18h-36a7,7,0,0,1,0-14,7.42,7.42,0,0,1,1.19.16V18a2,2,0,0,0,4,0V14.77a13,13,0,0,1,25.62,0V18a2,2,0,0,0,4,0V16.16A7.56,7.56,0,0,1,66.5,16a7,7,0,0,1,0,14Z"/></g><g id="Dibujo-2" data-name="Dibujo"><path d="M47,16.38a11.65,11.65,0,0,0-1.69.17,17,17,0,0,0-32.62,0A11.65,11.65,0,0,0,11,16.38a11,11,0,0,0,0,22H47a11,11,0,0,0,0-22Zm0,18H11a7,7,0,0,1,0-14,8.5,8.5,0,0,1,1.19.15v1.85a2,2,0,0,0,4,0V19.15a13,13,0,0,1,25.62,0v3.22a2,2,0,0,0,4,0V20.53A8.68,8.68,0,0,1,47,20.38a7,7,0,0,1,0,14Z"/><path class="cls-1" d="M54,27.38a7,7,0,0,1-7,7H11a7,7,0,0,1,0-14,8.5,8.5,0,0,1,1.19.15v1.85a2,2,0,0,0,4,0V19.15a13,13,0,0,1,25.62,0v3.22a2,2,0,0,0,4,0V20.53A8.68,8.68,0,0,1,47,20.38,7,7,0,0,1,54,27.38Z"/></g></g></g></svg>