<svg xmlns="http://www.w3.org/2000/svg" viewBox="0 0 58 52"><title>Datový zdroj 1</title><g id="Vrstva_2" data-name="Vrstva 2"><g id="Vrstva_1-2" data-name="Vrstva 1"><path d="M47,12a10.47,10.47,0,0,0-1.69.18,17,17,0,0,0-32.62,0A10.47,10.47,0,0,0,11,12a11,11,0,0,0,0,22,2,2,0,0,0,0-4,7,7,0,0,1,0-14,7.42,7.42,0,0,1,1.19.16V18a2,2,0,0,0,4,0V14.78a13,13,0,0,1,25.62,0V18a2,2,0,0,0,4,0V16.16A7.42,7.42,0,0,1,47,16a7,7,0,0,1,0,14,2,2,0,0,0,0,4,11,11,0,0,0,0-22Z"/><path d="M31.94,26.49l-6,24A2,2,0,0,1,24,52a2.12,2.12,0,0,1-.49-.06,2,2,0,0,1-1.45-2.43l6-24a2,2,0,1,1,3.88,1Z"/><path d="M38.48,30.06a2,2,0,0,0-2.42,1.46l-3,12a2,2,0,0,0,1.46,2.43A2,2,0,0,0,35,46a2,2,0,0,0,1.94-1.51l3-12A2,2,0,0,0,38.48,30.06Z"/><path d="M19.48,30.06a2,2,0,0,0-2.42,1.46l-3,12a2,2,0,0,0,1.46,2.43A2,2,0,0,0,16,46a2,2,0,0,0,1.94-1.51l3-12A2,2,0,0,0,19.48,30.06Z"/></g></g></svg>