<svg xmlns="http://www.w3.org/2000/svg" viewBox="0 0 77.5 38.38"><defs><style>.cls-1{fill:#fff;}</style></defs><title>Datový zdroj 9</title><g id="Vrstva_2" data-name="Vrstva 2"><g id="Vrstva_1-2" data-name="Vrstva 1"><g id="Dibujo"><path d="M66.5,12a9.51,9.51,0,0,0-1.69.19,17,17,0,0,0-32.62,0A9.51,9.51,0,0,0,30.5,12a11,11,0,0,0,0,22h36a11,11,0,0,0,0-22Zm0,18h-36a7,7,0,0,1,0-14,7.42,7.42,0,0,1,1.19.16V18a2,2,0,0,0,4,0V14.78a13,13,0,0,1,25.62,0V18a2,2,0,0,0,4,0V16.17A6.71,6.71,0,0,1,66.5,16a7,7,0,0,1,0,14Z"/><path d="M73.5,23a7,7,0,0,1-7,7h-36a7,7,0,0,1,0-14,7.42,7.42,0,0,1,1.19.16V18a2,2,0,0,0,4,0V14.78a13,13,0,0,1,25.62,0V18a2,2,0,0,0,4,0V16.17A6.71,6.71,0,0,1,66.5,16,7,7,0,0,1,73.5,23Z"/></g><g id="Dibujo-2" data-name="Dibujo"><path d="M47,16.38a10.47,10.47,0,0,0-1.69.18,17,17,0,0,0-32.62,0A10.47,10.47,0,0,0,11,16.38a11,11,0,0,0,0,22H47a11,11,0,0,0,0-22Zm0,18H11a7,7,0,0,1,0-14,7.42,7.42,0,0,1,1.19.16v1.84a2,2,0,0,0,4,0V19.15a13,13,0,0,1,25.62,0v3.22a2,2,0,0,0,4,0V20.54A7.56,7.56,0,0,1,47,20.38a7,7,0,0,1,0,14Z"/><path class="cls-1" d="M54,27.38a7,7,0,0,1-7,7H11a7,7,0,0,1,0-14,7.42,7.42,0,0,1,1.19.16v1.84a2,2,0,0,0,4,0V19.15a13,13,0,0,1,25.62,0v3.22a2,2,0,0,0,4,0V20.54A7.56,7.56,0,0,1,47,20.38,7,7,0,0,1,54,27.38Z"/></g></g></g></svg>