<svg xmlns="http://www.w3.org/2000/svg" viewBox="0 0 52 52"><title>Datový zdroj 6</title><g id="Vrstva_2" data-name="Vrstva 2"><g id="Vrstva_1-2" data-name="Vrstva 1"><g id="Dibujo"><path d="M40.14,13.86a2,2,0,0,0,1.42-.59l2.83-2.83a2,2,0,1,0-2.83-2.82l-2.83,2.82a2,2,0,0,0,1.41,3.42ZM8,26a2,2,0,0,0-2-2H2a2,2,0,0,0,0,4H6A2,2,0,0,0,8,26Zm2.44,12.73L7.61,41.56A2,2,0,0,0,9,45a2,2,0,0,0,1.41-.58l2.83-2.83a2,2,0,1,0-2.83-2.83Zm0-25.46a2,2,0,0,0,1.42.59,2,2,0,0,0,1.41-3.42L10.44,7.61a2,2,0,0,0-2.82,2.83ZM26,8a2,2,0,0,0,2-2V2a2,2,0,0,0-4,0V6A2,2,0,0,0,26,8ZM50,24H46a2,2,0,0,0,0,4h4a2,2,0,0,0,0-4ZM41.56,38.73a2,2,0,1,0-2.83,2.83l2.83,2.83A2,2,0,0,0,43,45a2,2,0,0,0,1.42-3.41ZM26,44a2,2,0,0,0-2,2v4a2,2,0,0,0,4,0V46A2,2,0,0,0,26,44Zm0-32A14,14,0,1,0,40,26,14,14,0,0,0,26,12Zm0,24A10,10,0,1,1,36,26,10,10,0,0,1,26,36Z"/></g></g></g></svg>