<svg xmlns="http://www.w3.org/2000/svg" viewBox="0 0 58 46"><title>Datový zdroj 11</title><g id="Vrstva_2" data-name="Vrstva 2"><g id="Vrstva_1-2" data-name="Vrstva 1"><g id="Dibujo"><path d="M50.24,24.49A14.08,14.08,0,0,0,55,14a2,2,0,0,0-2-2A10,10,0,0,1,43,2a2,2,0,0,0-2-2A14,14,0,0,0,27.14,12.11,16.89,16.89,0,0,0,12.69,24.18,10.47,10.47,0,0,0,11,24a11,11,0,0,0,0,22H47a11,11,0,0,0,3.24-21.51ZM39.17,4.17A14,14,0,0,0,50.83,15.83,10.11,10.11,0,0,1,45,23.16a16.89,16.89,0,0,0-13.8-11A10,10,0,0,1,39.17,4.17ZM47,42H11a7,7,0,0,1,0-14,7.42,7.42,0,0,1,1.19.16V30a2,2,0,0,0,4,0V26.78a13,13,0,0,1,25.62,0V30a2,2,0,0,0,4,0V28.16A7.56,7.56,0,0,1,47,28a7,7,0,0,1,0,14Z"/></g></g></g></svg>