<svg xmlns="http://www.w3.org/2000/svg" viewBox="0 0 67 52"><title>Datový zdroj 7</title><g id="Vrstva_2" data-name="Vrstva 2"><g id="Vrstva_1-2" data-name="Vrstva 1"><g id="Dibujo"><path d="M53.56,32.19A14,14,0,0,0,29.5,18L29,18A16.92,16.92,0,0,0,12.69,30.18,10.47,10.47,0,0,0,11,30a11,11,0,0,0,0,22H47a11,11,0,0,0,6.56-19.81ZM41,16A10,10,0,0,1,51,26a9.91,9.91,0,0,1-1,4.42A10.69,10.69,0,0,0,47,30a10.47,10.47,0,0,0-1.69.18A16.88,16.88,0,0,0,34.1,18.78,10,10,0,0,1,41,16Zm6,32H11a7,7,0,0,1,0-14,7.42,7.42,0,0,1,1.19.16V36a2,2,0,0,0,4,0V32.78a13,13,0,0,1,25.62,0V36a2,2,0,0,0,4,0V34.16A7.56,7.56,0,0,1,47,34a7,7,0,0,1,0,14Z"/><path d="M41,8a2,2,0,0,0,2-2V2a2,2,0,0,0-4,0V6A2,2,0,0,0,41,8Z"/><path d="M65,24H61a2,2,0,0,0,0,4h4a2,2,0,0,0,0-4Z"/><path d="M55.14,13.86a2,2,0,0,0,1.42-.59l2.82-2.83a2,2,0,0,0-2.82-2.82l-2.83,2.82a2,2,0,0,0,1.41,3.42Z"/><path d="M25.44,13.27a2,2,0,1,0,2.83-2.83L25.44,7.62a2,2,0,1,0-2.83,2.82Z"/></g></g></g></svg>