<svg xmlns="http://www.w3.org/2000/svg" viewBox="0 0 64 47"><title>Datový zdroj 5</title><g id="Vrstva_2" data-name="Vrstva 2"><g id="Vrstva_1-2" data-name="Vrstva 1"><g id="Dibujo"><path d="M5,25a2,2,0,0,0,2-2,7,7,0,0,1,7-7,7.42,7.42,0,0,1,1.19.16V18a2,2,0,1,0,4,0V14.78a13,13,0,0,1,25.62,0V18a2,2,0,0,0,4,0V16.16A7.42,7.42,0,0,1,50,16a7,7,0,0,1,7,7,2,2,0,0,0,4,0A11,11,0,0,0,50,12a10.47,10.47,0,0,0-1.69.18,17,17,0,0,0-32.62,0A10.47,10.47,0,0,0,14,12,11,11,0,0,0,3,23,2,2,0,0,0,5,25Z"/><path d="M24,31a2,2,0,0,0,2,2H62a2,2,0,0,0,0-4H26A2,2,0,0,0,24,31Z"/><path d="M32,36a2,2,0,0,0,0,4H59a2,2,0,0,0,0-4Z"/><path d="M62,43H38a2,2,0,0,0,0,4H62a2,2,0,0,0,0-4Z"/><path d="M2,33H20a2,2,0,0,0,0-4H2a2,2,0,0,0,0,4Z"/><path d="M5,36a2,2,0,0,0,0,4H26a2,2,0,0,0,0-4Z"/><path d="M32,43H2a2,2,0,0,0,0,4H32a2,2,0,0,0,0-4Z"/></g></g></g></svg>