<svg xmlns="http://www.w3.org/2000/svg" viewBox="0 0 58 69.88"><title>Datový zdroj 2</title><g id="Vrstva_2" data-name="Vrstva 2"><g id="Vrstva_1-2" data-name="Vrstva 1"><path d="M47,12a10.47,10.47,0,0,0-1.69.18,17,17,0,0,0-32.62,0A10.47,10.47,0,0,0,11,12a11,11,0,0,0,0,22,2,2,0,0,0,0-4,7,7,0,0,1,0-14,7.42,7.42,0,0,1,1.19.16V18a2,2,0,0,0,4,0V14.78a13,13,0,0,1,25.62,0V18a2,2,0,0,0,4,0V16.16A7.42,7.42,0,0,1,47,16a7,7,0,0,1,0,14,2,2,0,0,0,0,4,11,11,0,0,0,0-22Z"/><path d="M31.94,26.49l-6,24A2,2,0,0,1,24,52a2.12,2.12,0,0,1-.49-.06,2,2,0,0,1-1.45-2.43l6-24a2,2,0,1,1,3.88,1Z"/><path d="M38.48,30.06a2,2,0,0,0-2.42,1.46l-3,12a2,2,0,0,0,1.46,2.43A2,2,0,0,0,35,46a2,2,0,0,0,1.94-1.51l3-12A2,2,0,0,0,38.48,30.06Z"/><path d="M19.48,30.06a2,2,0,0,0-2.42,1.46l-3,12a2,2,0,0,0,1.46,2.43A2,2,0,0,0,16,46a2,2,0,0,0,1.94-1.51l3-12A2,2,0,0,0,19.48,30.06Z"/><path d="M23,53.94a2,2,0,0,0-2.42,1.46l-3,12a2,2,0,0,0,3.88,1l3-12A2,2,0,0,0,23,53.94Z"/><path d="M14.65,49.28a2,2,0,0,0-2.43,1.46l-3,12a2,2,0,0,0,1.46,2.42,1.58,1.58,0,0,0,.48.06,2,2,0,0,0,1.94-1.51l3-12A2,2,0,0,0,14.65,49.28Z"/><path d="M33.24,49.28a2,2,0,0,0-2.43,1.46l-3,12a2,2,0,0,0,1.46,2.42,1.58,1.58,0,0,0,.48.06,2,2,0,0,0,1.94-1.51l3-12A2,2,0,0,0,33.24,49.28Z"/><path d="M11.45,38.67l-4.8,18.8A1.59,1.59,0,0,1,5.1,58.65a1.72,1.72,0,0,1-.39,0A1.56,1.56,0,0,1,3.55,56.7l4.8-18.78a1.6,1.6,0,0,1,1.94-1.15A1.56,1.56,0,0,1,11.45,38.67Z"/><path d="M44.9,39.61l-5.35,21a1.77,1.77,0,0,1-1.73,1.32,2.18,2.18,0,0,1-.43-.05,1.74,1.74,0,0,1-1.3-2.12l5.35-20.94a1.79,1.79,0,0,1,2.17-1.28A1.73,1.73,0,0,1,44.9,39.61Z"/><path d="M47,12a10.47,10.47,0,0,0-1.69.18,17,17,0,0,0-32.62,0A10.47,10.47,0,0,0,11,12a11,11,0,0,0,0,22,2,2,0,0,0,0-4,7,7,0,0,1,0-14,7.42,7.42,0,0,1,1.19.16V18a2,2,0,0,0,4,0V14.78a13,13,0,0,1,25.62,0V18a2,2,0,0,0,4,0V16.16A7.42,7.42,0,0,1,47,16a7,7,0,0,1,0,14,2,2,0,0,0,0,4,11,11,0,0,0,0-22Z"/><path d="M31.94,26.49l-6,24A2,2,0,0,1,24,52a2.12,2.12,0,0,1-.49-.06,2,2,0,0,1-1.45-2.43l6-24a2,2,0,1,1,3.88,1Z"/><path d="M38.48,30.06a2,2,0,0,0-2.42,1.46l-3,12a2,2,0,0,0,1.46,2.43A2,2,0,0,0,35,46a2,2,0,0,0,1.94-1.51l3-12A2,2,0,0,0,38.48,30.06Z"/><path d="M19.48,30.06a2,2,0,0,0-2.42,1.46l-3,12a2,2,0,0,0,1.46,2.43A2,2,0,0,0,16,46a2,2,0,0,0,1.94-1.51l3-12A2,2,0,0,0,19.48,30.06Z"/></g></g></svg>