<svg xmlns="http://www.w3.org/2000/svg" viewBox="0 0 58 48"><title>Datový zdroj 4</title><g id="Vrstva_2" data-name="Vrstva 2"><g id="Vrstva_1-2" data-name="Vrstva 1"><g id="Dibujo"><path d="M47,12a10.47,10.47,0,0,0-1.69.18,17,17,0,0,0-32.62,0A10.47,10.47,0,0,0,11,12a11,11,0,0,0,0,22,2,2,0,0,0,0-4,7,7,0,0,1,0-14,7.42,7.42,0,0,1,1.19.16V18a2,2,0,0,0,4,0V14.78a13,13,0,0,1,25.62,0V18a2,2,0,0,0,4,0V16.16A7.42,7.42,0,0,1,47,16a7,7,0,0,1,0,14,2,2,0,0,0,0,4,11,11,0,0,0,0-22Z"/><path d="M26.73,34.46a2,2,0,1,0-3.46,2l1,1.73a2,2,0,0,0,2.73.74,2,2,0,0,0,.73-2.74Z"/><path d="M21.73,25.8a2,2,0,0,0-3.46,2l1,1.73a2,2,0,0,0,2.73.74,2,2,0,0,0,.73-2.74Z"/><path d="M24,30.27a2,2,0,0,0,2.73-.73l1-1.74a2,2,0,1,0-3.46-2l-1,1.74A2,2,0,0,0,24,30.27Z"/><path d="M22,33.73a2,2,0,0,0-2.73.73l-1,1.74a2,2,0,1,0,3.46,2l1-1.74A2,2,0,0,0,22,33.73Z"/><path d="M21,32a2,2,0,0,0-2-2H17a2,2,0,0,0,0,4h2A2,2,0,0,0,21,32Z"/><path d="M31,32a2,2,0,0,0-2-2H27a2,2,0,0,0,0,4h2A2,2,0,0,0,31,32Z"/><path d="M41.73,43.27a2,2,0,1,0-3.46,2l1,1.73a2,2,0,1,0,3.46-2Z"/><path d="M36.73,34.61a2,2,0,0,0-3.46,2l1,1.73a2,2,0,1,0,3.46-2Z"/><path d="M39,39.07a2,2,0,0,0,2.73-.73l1-1.73a2,2,0,1,0-3.46-2l-1,1.73A2,2,0,0,0,39,39.07Z"/><path d="M37,42.54a2,2,0,0,0-2.73.73l-1,1.73a2,2,0,1,0,3.46,2l1-1.73A2,2,0,0,0,37,42.54Z"/><path d="M36,40.8a2,2,0,0,0-2-2H32a2,2,0,0,0,0,4h2A2,2,0,0,0,36,40.8Z"/><path d="M44,38.8H42a2,2,0,0,0,0,4h2a2,2,0,0,0,0-4Z"/></g></g></g></svg>