<svg xmlns="http://www.w3.org/2000/svg" viewBox="0 0 58 52"><title>Datový zdroj 3</title><g id="Vrstva_2" data-name="Vrstva 2"><g id="Vrstva_1-2" data-name="Vrstva 1"><g id="Dibujo"><path d="M47,12a10.47,10.47,0,0,0-1.69.18,17,17,0,0,0-32.62,0A10.47,10.47,0,0,0,11,12a11,11,0,0,0,0,22H22.26l-3.92,5.89A2,2,0,0,0,20,43h2.26l-3.92,5.89a2,2,0,1,0,3.32,2.22l6-9A2,2,0,0,0,26,39H23.74l3.33-5h5.19l-1.93,2.89a2,2,0,0,0-.09,2A2,2,0,0,0,32,40h2.26l-1.92,2.89a2,2,0,1,0,3.32,2.22l4-6A2,2,0,0,0,38,36H35.74l1.33-2H47a11,11,0,0,0,0-22Zm0,18H11a7,7,0,0,1,0-14,7.42,7.42,0,0,1,1.19.16V18a2,2,0,0,0,4,0V14.78a13,13,0,0,1,25.62,0V18a2,2,0,0,0,4,0V16.16A7.56,7.56,0,0,1,47,16a7,7,0,0,1,0,14Z"/></g></g></g></svg>